<svg xmlns="http://www.w3.org/2000/svg" version="1.1" xmlns:xlink="http://www.w3.org/1999/xlink" xmlns:svgjs="http://svgjs.dev/svgjs" width="1440" height="560" preserveAspectRatio="none" viewBox="0 0 1440 560"><g mask="url(&quot;#SvgjsMask1000&quot;)" fill="none"><rect width="1440" height="560" x="0" y="0" fill="#0e2a47"></rect><path d="M 0,177 C 57.6,210.8 172.8,333.6 288,346 C 403.2,358.4 460.8,215.6 576,239 C 691.2,262.4 748.8,493.8 864,463 C 979.2,432.2 1036.8,75 1152,85 C 1267.2,95 1382.4,427.4 1440,513L1440 560L0 560z" fill="#184a7e"></path><path d="M 0,62 C 96,120.4 288,319 480,354 C 672,389 768,223.4 960,237 C 1152,250.6 1344,385 1440,422L1440 560L0 560z" fill="#2264ab"></path></g><defs><mask id="SvgjsMask1000"><rect width="1440" height="560" fill="#ffffff"></rect></mask></defs></svg>